<?xml version="1.0" encoding="UTF-8" standalone="no"?>
<svg
   xmlns:dc="http://purl.org/dc/elements/1.1/"
   xmlns:cc="http://creativecommons.org/ns#"
   xmlns:rdf="http://www.w3.org/1999/02/22-rdf-syntax-ns#"
   xmlns:svg="http://www.w3.org/2000/svg"
   xmlns="http://www.w3.org/2000/svg"
   xmlns:sodipodi="http://sodipodi.sourceforge.net/DTD/sodipodi-0.dtd"
   xmlns:inkscape="http://www.inkscape.org/namespaces/inkscape"
   width="1792"
   height="1792"
   viewBox="0 0 1792 1792"
   version="1.1"
   id="svg4"
   sodipodi:docname="shape-stroke.svg"
   inkscape:version="0.92.1 r15371">
  <metadata
     id="metadata10">
    <rdf:RDF>
      <cc:Work
         rdf:about="">
        <dc:format>image/svg+xml</dc:format>
        <dc:type
           rdf:resource="http://purl.org/dc/dcmitype/StillImage" />
      </cc:Work>
    </rdf:RDF>
  </metadata>
  <defs
     id="defs8" />
  <sodipodi:namedview
     pagecolor="#ffffff"
     bordercolor="#666666"
     borderopacity="1"
     objecttolerance="10"
     gridtolerance="10"
     guidetolerance="10"
     inkscape:pageopacity="0"
     inkscape:pageshadow="2"
     inkscape:window-width="1600"
     inkscape:window-height="837"
     id="namedview6"
     showgrid="false"
     inkscape:zoom="0.13169643"
     inkscape:cx="1271.5834"
     inkscape:cy="137.03708"
     inkscape:window-x="-8"
     inkscape:window-y="-8"
     inkscape:window-maximized="1"
     inkscape:current-layer="svg4" />
  <path
     style="fill:#000000;stroke-width:3.50636911"
     d="m 253.63364,1764.6721 c 0.9383,-8.3223 17.31725,-158.2417 36.39786,-333.1541 22.72723,-208.3425 35.96553,-317.5344 38.38492,-316.6073 7.18736,2.7543 534.9576,390.8354 534.98881,393.389 0.0351,1.8984 -500.35747,224.2604 -599.62381,266.4645 l -11.85328,5.0393 z m 67.58351,-654.7257 C 147.65188,1083.2647 2.7062939,1060.9358 -0.8842281,1060.3271 -5.9277894,1059.4722 37.759115,1002.7732 191.22553,810.9969 300.47662,674.47396 395.19731,555.78582 401.71635,547.24536 L 413.56928,531.71705 350.97149,375.35368 C 290.02975,223.12781 288.62264,219.04219 297.78268,220.9472 c 17.16298,3.56948 642.91449,93.16983 650.6797,93.16983 6.51974,0 18.53221,-21.51964 83.08802,-148.84852 l 75.4665,-148.848174 183.4455,278.744074 c 100.8951,153.30934 182.5139,279.67572 181.375,280.81459 -2.6915,2.69184 -661.17322,41.16302 -663.56807,38.76852 -1.00142,-1.00177 30.61936,-66.68658 70.26833,-145.96629 39.64932,-79.2797 71.48225,-144.14509 70.7403,-144.14509 -0.74195,0 -93.28239,116.79366 -205.64539,259.5411 -112.36335,142.74744 -204.71094,259.11507 -205.21691,258.59472 -0.50632,-0.52034 -12.23232,-29.34796 -26.05864,-64.06101 -13.82596,-34.71305 -26.5653,-64.58662 -28.30937,-66.38609 -1.74442,-1.79911 1.36503,8.45702 6.9093,22.7914 9.89708,25.58948 160.63273,411.06674 164.09913,419.65274 1.18585,2.937 -1.53579,4.2687 -8.24804,4.0366 -5.5099,-0.1894 -152.02564,-22.1771 -325.59089,-48.8592 z M 480.75692,699.81765 c -2.0642,-3.85701 -4.54215,-7.01274 -5.5064,-7.01274 -0.96425,0 -0.0631,3.15573 2.00003,7.01274 2.0642,3.857 4.54215,7.01273 5.50641,7.01273 0.96425,0 0.0631,-3.15573 -2.00004,-7.01273 z m -7.01274,-17.53185 c -2.06419,-3.85701 -4.54215,-7.01274 -5.5064,-7.01274 -0.96425,0 -0.0631,3.15573 2.00004,7.01274 2.0642,3.85701 4.54215,7.01274 5.5064,7.01274 0.96425,0 0.0631,-3.15573 -2.00004,-7.01274 z m -7.01273,-17.53185 c -2.0642,-3.857 -4.54215,-7.01273 -5.50641,-7.01273 -0.96425,0 -0.0631,3.15573 2.00004,7.01273 2.0642,3.85701 4.54215,7.01274 5.5064,7.01274 0.96425,0 0.0631,-3.15573 -2.00003,-7.01274 z m 957.08205,247.64433 c -139.9024,-115.95492 -255.0866,-212.37551 -255.965,-214.26755 -0.878,-1.89204 66.2518,-28.8199 149.1774,-59.83969 82.9257,-31.0198 153.1407,-57.29372 156.0335,-58.38666 84.6879,-31.99737 317.6879,-117.06153 318.636,-116.3287 1.864,1.44077 -108.8387,654.79372 -111.3973,657.45152 -1.1638,1.2094 -116.5819,-92.6736 -256.4846,-208.62892 z"
     id="path62"
     inkscape:connector-curvature="0" />
</svg>
