<?xml version="1.0" encoding="iso-8859-1"?>
<!-- Generator: Adobe Illustrator 16.0.0, SVG Export Plug-In . SVG Version: 6.00 Build 0)  -->
<!DOCTYPE svg PUBLIC "-//W3C//DTD SVG 1.1//EN" "http://www.w3.org/Graphics/SVG/1.1/DTD/svg11.dtd">
<svg version="1.1" id="Capa_1" xmlns="http://www.w3.org/2000/svg" xmlns:xlink="http://www.w3.org/1999/xlink" x="0px" y="0px"
	 width="327.046px" height="327.045px" viewBox="0 0 327.046 327.045" style="enable-background:new 0 0 327.046 327.045;"
	 xml:space="preserve">
<g>
	<g>
		<path d="M157.014,88.154h-9.899V45.028c0-7.305-5.92-13.229-13.219-13.229H63.804c-7.305,0-13.219,5.924-13.219,13.229v43.126
			H32.727c-7.305,0-13.22,5.93-13.22,13.22v53.485v105.499v53.466c0,7.303,5.921,13.223,13.22,13.223H157.02
			c7.305,0,13.229-5.926,13.229-13.223V101.379C170.242,94.083,164.318,88.154,157.014,88.154z M45.946,168.086h35.695v79.041
			H45.946V168.086z"/>
		<path d="M299.234,113.683L196.384,72.424l103.403-47.155c4.875-2.219,7.752-7.026,7.752-12.046c0-1.837-0.391-3.702-1.207-5.477
			c-3.026-6.659-10.869-9.58-17.51-6.551L157.299,61.168c-0.111,0.054-0.204,0.147-0.315,0.201c-0.91,0.45-1.766,1.003-2.552,1.654
			c-0.207,0.171-0.411,0.327-0.606,0.511c-0.808,0.75-1.552,1.567-2.153,2.528c-0.099,0.147-0.153,0.3-0.24,0.447
			c-0.333,0.567-0.669,1.138-0.921,1.777c-0.117,0.264-0.142,0.535-0.234,0.811c-0.105,0.297-0.186,0.604-0.264,0.918
			c-0.234,0.94-0.387,1.892-0.405,2.852c0,0.117-0.057,0.234-0.057,0.352c0,0.036,0.024,0.078,0.024,0.123
			c0,0.787,0.105,1.585,0.234,2.36c0.045,0.111,0.045,0.222,0.057,0.345c0.195,0.868,0.483,1.696,0.847,2.507
			c0.018,0.051,0.018,0.1,0.045,0.142c0.042,0.104,0.129,0.18,0.177,0.285c0.448,0.916,1.015,1.777,1.673,2.57
			c0.165,0.213,0.327,0.417,0.504,0.619c0.751,0.808,1.58,1.537,2.534,2.146c0.129,0.093,0.271,0.141,0.399,0.223
			c0.583,0.345,1.168,0.681,1.813,0.939l131.517,52.77c1.609,0.64,3.279,0.949,4.912,0.949c5.255,0,10.221-3.138,12.286-8.302
			C309.292,124.114,306.008,116.41,299.234,113.683z"/>
	</g>
</g>
<g>
</g>
<g>
</g>
<g>
</g>
<g>
</g>
<g>
</g>
<g>
</g>
<g>
</g>
<g>
</g>
<g>
</g>
<g>
</g>
<g>
</g>
<g>
</g>
<g>
</g>
<g>
</g>
<g>
</g>
</svg>
