<?xml version="1.0" encoding="UTF-8" standalone="no"?>
<!-- Generator: Adobe Illustrator 16.0.0, SVG Export Plug-In . SVG Version: 6.00 Build 0)  -->

<svg
   xmlns:dc="http://purl.org/dc/elements/1.1/"
   xmlns:cc="http://creativecommons.org/ns#"
   xmlns:rdf="http://www.w3.org/1999/02/22-rdf-syntax-ns#"
   xmlns:svg="http://www.w3.org/2000/svg"
   xmlns="http://www.w3.org/2000/svg"
   xmlns:sodipodi="http://sodipodi.sourceforge.net/DTD/sodipodi-0.dtd"
   xmlns:inkscape="http://www.inkscape.org/namespaces/inkscape"
   version="1.1"
   id="Capa_1"
   x="0px"
   y="0px"
   width="356.766px"
   height="356.766px"
   viewBox="0 0 356.766 356.766"
   style="enable-background:new 0 0 356.766 356.766;"
   xml:space="preserve"
   sodipodi:docname="shape-line.svg"
   inkscape:version="0.92.1 r15371"><metadata
     id="metadata43"><rdf:RDF><cc:Work
         rdf:about=""><dc:format>image/svg+xml</dc:format><dc:type
           rdf:resource="http://purl.org/dc/dcmitype/StillImage" /></cc:Work></rdf:RDF></metadata><defs
     id="defs41" /><sodipodi:namedview
     pagecolor="#ffffff"
     bordercolor="#666666"
     borderopacity="1"
     objecttolerance="10"
     gridtolerance="10"
     guidetolerance="10"
     inkscape:pageopacity="0"
     inkscape:pageshadow="2"
     inkscape:window-width="1600"
     inkscape:window-height="837"
     id="namedview39"
     showgrid="false"
     inkscape:zoom="0.66149803"
     inkscape:cx="-79.365311"
     inkscape:cy="178.383"
     inkscape:window-x="-8"
     inkscape:window-y="-8"
     inkscape:window-maximized="1"
     inkscape:current-layer="Capa_1" /><g
     id="g8" /><g
     id="g10" /><g
     id="g12" /><g
     id="g14" /><g
     id="g16" /><g
     id="g18" /><g
     id="g20" /><g
     id="g22" /><g
     id="g24" /><g
     id="g26" /><g
     id="g28" /><g
     id="g30" /><g
     id="g32" /><g
     id="g34" /><g
     id="g36" /><path
     style="fill:#000000;stroke-width:0.65519464"
     d="m 37.853827,332.71651 c -34.5173062,-33.50334 -62.807662,-61.19426 -62.867455,-61.53539 -0.05979,-0.34114 37.799264,-11.38686 84.131256,-24.54605 77.118362,-21.90312 84.237882,-23.80493 84.215062,-22.49603 -0.0239,1.37528 -42.13593,169.07271 -42.5281,169.3546 -0.10562,0.0759 -28.433457,-27.27379 -62.950763,-60.77713 z M 143.9618,222.13648 c -34.43583,-33.44147 -62.595561,-60.96909 -62.577184,-61.17246 0.03888,-0.4306 168.891864,-48.45301 169.148384,-48.10644 0.45172,0.6103 -42.74677,170.36109 -43.3202,170.22904 -0.35224,-0.0811 -28.8152,-27.50868 -63.251,-60.95014 z M 252.53946,113.71134 C 218.5703,80.714035 190.1008,53.034064 189.27391,52.200295 l -1.50342,-1.515962 84.55272,-24.010037 c 46.50399,-13.20552 84.67794,-23.8408416 84.831,-23.634049 0.23407,0.3162289 -42.39386,170.510693 -42.73618,170.626713 -0.064,0.0217 -27.9094,-26.95832 -61.87857,-59.95562 z"
     id="path33"
     inkscape:connector-curvature="0" /></svg>