<?xml version="1.0" encoding="iso-8859-1"?>
<!-- Generator: Adobe Illustrator 19.0.0, SVG Export Plug-In . SVG Version: 6.00 Build 0)  -->
<svg version="1.1" id="Layer_1" xmlns="http://www.w3.org/2000/svg" xmlns:xlink="http://www.w3.org/1999/xlink" x="0px" y="0px"
	 viewBox="0 0 512 512" style="enable-background:new 0 0 512 512;" xml:space="preserve">
<g>
	<g>
		<path d="M475.892,480.783l-43.017-86.036h23.274c9.208,0,16.679-7.471,16.679-16.679c0-9.208-7.471-16.568-16.679-16.568h-39.953
			l-83.605-167.327c4.366-10.112,6.807-21.241,6.807-32.938c0-27.203-13.148-51.328-33.359-66.56V50.038
			C306.04,22.446,283.593,0,256.001,0s-49.927,22.446-49.927,50.038v44.636c-20.211,15.233-33.47,39.358-33.47,66.56
			c0,11.697,2.442,22.825,6.807,32.938L95.804,361.499H55.849c-9.214,0-16.679,7.36-16.679,16.568
			c0,9.208,7.466,16.679,16.679,16.679h23.277l-43.018,86.036c-4.115,8.242-0.776,18.254,7.46,22.38
			c41.139,20.599,91.336,3.833,111.902-37.301l35.557-71.116h48.407v16.679c0,9.208,7.354,16.679,16.568,16.679
			c9.214,0,16.679-7.471,16.679-16.679v-16.679h48.296l35.558,71.116c20.628,41.256,70.68,57.909,111.897,37.301
			C476.674,499.037,480.007,489.025,475.892,480.783z M272.682,361.499v-16.791c0-9.208-7.466-16.679-16.679-16.679
			c-9.214,0-16.568,7.471-16.568,16.679v16.791h-31.728l48.296-96.702l48.296,96.702H272.682z M256.002,210.817
			c-29.425,0-50.038-23.451-50.038-49.582c0-27.592,22.445-50.038,50.038-50.038c27.592,0,50.038,22.446,50.038,50.038
			C306.041,187.286,285.535,210.817,256.002,210.817z"/>
	</g>
</g>
<g>
</g>
<g>
</g>
<g>
</g>
<g>
</g>
<g>
</g>
<g>
</g>
<g>
</g>
<g>
</g>
<g>
</g>
<g>
</g>
<g>
</g>
<g>
</g>
<g>
</g>
<g>
</g>
<g>
</g>
</svg>
