<?xml version="1.0" encoding="iso-8859-1"?>
<!-- Generator: Adobe Illustrator 16.0.0, SVG Export Plug-In . SVG Version: 6.00 Build 0)  -->
<!DOCTYPE svg PUBLIC "-//W3C//DTD SVG 1.1//EN" "http://www.w3.org/Graphics/SVG/1.1/DTD/svg11.dtd">
<svg version="1.1" id="Capa_1" xmlns="http://www.w3.org/2000/svg" xmlns:xlink="http://www.w3.org/1999/xlink" x="0px" y="0px"
	 width="490.243px" height="490.243px" viewBox="0 0 490.243 490.243" style="enable-background:new 0 0 490.243 490.243;"
	 xml:space="preserve">
<g>
	<path d="M298.012,78.889h-73.026V66.415h9.234v-18.71c0.437,0.135,0.881,0.219,1.333,0.219c3.737,0,6.764-4.888,6.764-10.926
		c0-6.027-3.027-10.92-6.764-10.92c-0.452,0-0.896,0.079-1.333,0.213v-9.333h54.55v49.457h9.236v12.474H298.012z M352.549,135.265
		v327.248c0,15.31-12.416,27.73-27.73,27.73H204.181c-15.312,0-27.731-12.421-27.731-27.73V135.265
		c0-8.736,4.057-16.514,10.375-21.599c-2.118-2.064-3.438-4.946-3.438-8.132c0-6.294,5.101-11.382,11.387-11.382h139.408
		c6.292,0,11.396,5.09,11.396,11.382c0,3.176-1.315,6.05-3.418,8.127C348.491,118.733,352.549,126.523,352.549,135.265z
		 M233.196,98.097h-28.599c-6.708,0-6.708,10.399,0,10.399h28.599C239.904,108.496,239.904,98.097,233.196,98.097z M336.33,302.622
		c0-6.708-10.4-6.708-10.4,0v142.133c0,6.708,10.4,6.708,10.4,0V302.622z M144.908,50.033l-6.018,0.828
		c-0.759,0.104-1.287,0.8-1.183,1.563l0.409,3.017c0.048,0.366,0.246,0.698,0.536,0.922c0.246,0.185,0.541,0.279,0.838,0.279
		c0.068,0,0.125-0.005,0.193-0.016l6.02-0.825c0.759-0.111,1.29-0.807,1.186-1.566l-0.409-3.011
		C146.368,50.465,145.682,49.929,144.908,50.033z M206.333,32.042c0.167,0.074,0.353,0.109,0.536,0.109
		c0.183,0,0.358-0.036,0.531-0.104c0.343-0.134,0.607-0.406,0.754-0.749l1.175-2.795c0.3-0.703-0.028-1.514-0.734-1.815
		l-9.577-4.029c-0.698-0.297-1.521,0.03-1.815,0.731l-1.186,2.793c-0.134,0.337-0.14,0.724-0.005,1.066
		c0.129,0.333,0.404,0.609,0.744,0.754L206.333,32.042z M187.172,23.973c0.178,0.076,0.358,0.109,0.541,0.109
		c0.541,0,1.051-0.317,1.274-0.848l1.191-2.798c0.14-0.343,0.14-0.724,0.005-1.062c-0.14-0.338-0.401-0.617-0.749-0.759
		l-9.577-4.024c-0.698-0.297-1.513,0.033-1.81,0.739l-1.191,2.798c-0.14,0.337-0.14,0.721-0.01,1.061
		c0.135,0.343,0.406,0.612,0.749,0.76L187.172,23.973z M155.813,54.398c0.066,0,0.119-0.007,0.185-0.013l10.291-1.407
		c0.759-0.106,1.295-0.797,1.191-1.557l-0.414-3.026c-0.058-0.363-0.241-0.695-0.541-0.914c-0.292-0.223-0.668-0.327-1.021-0.271
		l-10.29,1.414c-0.363,0.054-0.696,0.247-0.914,0.536c-0.224,0.302-0.323,0.665-0.277,1.031l0.421,3.006
		C154.538,53.897,155.125,54.398,155.813,54.398z M168.038,15.902c0.17,0.074,0.348,0.109,0.533,0.109
		c0.188,0,0.366-0.035,0.531-0.104c0.345-0.134,0.609-0.409,0.754-0.754l1.181-2.803c0.297-0.706-0.036-1.513-0.744-1.812
		l-9.583-4.024c-0.333-0.147-0.718-0.147-1.061-0.008c-0.333,0.143-0.609,0.406-0.754,0.752l-1.186,2.8
		c-0.292,0.708,0.043,1.518,0.739,1.815L168.038,15.902z M216.266,52.806c0.198,0.317,0.513,0.536,0.878,0.609
		c0.094,0.021,0.193,0.036,0.297,0.036c0.264,0,0.518-0.079,0.747-0.219l5.118-3.27c0.645-0.417,0.835-1.27,0.422-1.915
		l-1.633-2.564c-0.043-0.061-0.104-0.104-0.152-0.155l1.851-0.249c0.759-0.109,1.285-0.803,1.186-1.567l-0.411-3.006
		c-0.109-0.759-0.815-1.325-1.564-1.19l-6.028,0.828c-0.363,0.048-0.69,0.234-0.914,0.536c-0.223,0.292-0.322,0.66-0.267,1.019
		l0.406,3.016c0.104,0.698,0.693,1.191,1.374,1.191c0.066,0,0.13-0.005,0.193-0.005l1.391-0.193l-4.101,2.615
		c-0.645,0.416-0.828,1.27-0.417,1.919L216.266,52.806z M221.501,38.438c0.183,0.079,0.358,0.109,0.541,0.109
		c0.541,0,1.051-0.322,1.274-0.843l1.186-2.801c0.14-0.337,0.14-0.724,0.005-1.061c-0.135-0.343-0.401-0.609-0.744-0.759
		l-5.606-2.361c-0.333-0.14-0.721-0.14-1.066-0.005c-0.333,0.135-0.607,0.411-0.754,0.749l-1.181,2.808
		c-0.294,0.706,0.038,1.518,0.739,1.82L221.501,38.438z M148.881,7.833c0.17,0.073,0.353,0.109,0.536,0.109
		c0.181,0,0.363-0.036,0.536-0.104c0.337-0.14,0.602-0.411,0.754-0.749l1.178-2.803c0.297-0.706-0.03-1.519-0.736-1.821
		l-5.601-2.354c-0.708-0.302-1.513,0.031-1.826,0.742l-1.181,2.798c-0.134,0.337-0.145,0.729-0.005,1.061
		c0.14,0.337,0.401,0.62,0.749,0.759L148.881,7.833z M196.99,48.744c0.066,0,0.119-0.005,0.193-0.015l10.291-1.414
		c0.363-0.046,0.696-0.239,0.919-0.531c0.224-0.294,0.323-0.665,0.272-1.028l-0.412-3.021c-0.053-0.358-0.251-0.693-0.541-0.912
		c-0.297-0.224-0.666-0.32-1.031-0.274l-10.291,1.415c-0.363,0.048-0.696,0.239-0.919,0.541c-0.218,0.292-0.317,0.665-0.271,1.026
		l0.417,3.014C195.716,48.236,196.302,48.744,196.99,48.744z M206.298,53.913l-8.767,5.586c-0.312,0.198-0.531,0.518-0.615,0.873
		c-0.079,0.353-0.01,0.739,0.188,1.039l1.638,2.58c0.264,0.411,0.718,0.64,1.175,0.64c0.259,0,0.51-0.079,0.749-0.218l8.757-5.596
		c0.642-0.414,0.835-1.262,0.419-1.917l-1.633-2.564C207.796,53.694,206.938,53.507,206.298,53.913z M155.64,87.875
		c-0.406-0.645-1.259-0.828-1.909-0.426l-5.121,3.265c-0.312,0.198-0.536,0.516-0.602,0.868c-0.089,0.358-0.022,0.739,0.175,1.041
		l1.638,2.572c0.193,0.312,0.51,0.531,0.869,0.609c0.104,0.021,0.198,0.036,0.302,0.036c0.262,0,0.521-0.079,0.749-0.218
		l5.121-3.275c0.317-0.198,0.541-0.516,0.609-0.874c0.084-0.358,0.01-0.734-0.188-1.046L155.64,87.875z M186.888,50.138
		c0.759-0.099,1.282-0.8,1.183-1.554l-0.409-3.021c-0.054-0.363-0.247-0.696-0.536-0.914c-0.302-0.231-0.665-0.317-1.031-0.277
		l-10.291,1.425c-0.363,0.048-0.701,0.246-0.919,0.53c-0.218,0.303-0.322,0.666-0.267,1.031l0.417,3.009
		c0.094,0.693,0.693,1.195,1.374,1.195c0.061,0,0.125-0.01,0.188-0.015L186.888,50.138z M173.164,76.693
		c-0.198-0.315-0.51-0.533-0.863-0.612c-0.357-0.079-0.738-0.01-1.051,0.185l-8.762,5.601c-0.645,0.411-0.835,1.27-0.426,1.909
		l1.638,2.564c0.193,0.31,0.505,0.528,0.863,0.607c0.109,0.02,0.198,0.036,0.307,0.036c0.262,0,0.521-0.076,0.749-0.219l8.762-5.598
		c0.645-0.412,0.838-1.264,0.421-1.91L173.164,76.693z M188.779,65.087l-8.768,5.586c-0.64,0.411-0.833,1.262-0.421,1.907
		l1.627,2.58c0.193,0.312,0.516,0.536,0.869,0.609c0.104,0.021,0.203,0.03,0.302,0.03c0.264,0,0.521-0.076,0.749-0.218l8.762-5.591
		c0.65-0.409,0.838-1.267,0.421-1.907l-1.627-2.569c-0.198-0.312-0.51-0.536-0.873-0.607
		C189.465,64.828,189.086,64.892,188.779,65.087z"/>
</g>
<g>
</g>
<g>
</g>
<g>
</g>
<g>
</g>
<g>
</g>
<g>
</g>
<g>
</g>
<g>
</g>
<g>
</g>
<g>
</g>
<g>
</g>
<g>
</g>
<g>
</g>
<g>
</g>
<g>
</g>
</svg>
