<?xml version="1.0" ?>
<svg width="512" height="512" xmlns="http://www.w3.org/2000/svg" xmlns:svg="http://www.w3.org/2000/svg">
    <g>
        <path d="M256,256 305.26722208658856,341.3333333333333 206.73277791341147,341.3333333333333 M256,256 157.46555582682294,255.9999992342088 206.73277791341147,170.66666666666669 M256,256 305.26722208658856,170.66666666666669 354.53444417317706,255.99999923420873 M256,341.3333333333333 305.26722208658856,426.66666666666663 206.73277791341147,426.66666666666663 M182.0991668701172,298.6666666666667 132.83193969726562,384 83.56471761067709,298.6666666666667 M182.0991668701172,213.33333333333334 83.56471761067709,213.33333333333334 132.83193969726562,128 M255.99999999999997,170.66666666666669 206.73277791341147,85.33333333333334 305.26722208658856,85.33333333333334 M329.9008331298828,213.33333333333334 379.1680603027344,128 428.4352823893229,213.33333333333334 M329.9008331298828,298.6666666666667 428.4352823893229,298.6666666666667 379.1680603027344,384 M256.00000000000006,426.66666666666663 305.26722208658856,512 206.73277791341147,512 M170.66666666666669,403.8016662597656 170.66666666666669,502.33612060546875 85.33333333333334,453.06888834635413 M108.19833374023438,341.3333333333333 58.93111165364584,426.66666666666663 9.66387939453125,341.3333333333333 M85.33333333333334,256.0000000000001 0,305.26722208658856 0,206.73277791341147 M108.19833374023438,170.66666666666669 9.66387939453125,170.66666666666669 58.93111165364584,85.33333333333334 M170.66666666666669,108.19833374023438 85.33333333333334,58.93111165364584 170.66666666666669,9.66387939453125 M255.99999999999983,85.33333333333334 206.73277791341147,0 305.26722208658856,0 M341.3333333333333,108.19833374023438 341.3333333333333,9.66387939453125 426.66666666666663,58.93111165364584 M403.8016662597656,170.66666666666669 453.06888834635413,85.33333333333334 502.33612060546875,170.66666666666669 M426.66666666666663,255.9999999999998 512,206.73277791341147 512,305.26722208658856 M403.8016662597656,341.3333333333333 502.33612060546875,341.3333333333333 453.06888834635413,426.66666666666663 M341.3333333333333,403.8016662597656 426.66666666666663,453.06888834635413 341.3333333333333,502.33612060546875 "/>
    </g>
</svg>