<?xml version="1.0" ?>
<svg width="512" height="512" xmlns="http://www.w3.org/2000/svg" xmlns:svg="http://www.w3.org/2000/svg">
<g>
    <path d="M256,512 251.00568771362305,281.1081027984619 158.03304290771484,492.5131530761719 241.7774019241333,277.2856216430664 74.98066711425781,437.0193328857422 234.7143783569336,270.2225971221924 19.486846923828125,353.96695709228516 230.8918972015381,260.9943118095398 0,256.00000130129433 230.8918972015381,251.00568771362305 19.486831665039062,158.03304290771484 234.7143783569336,241.7774019241333 74.98065185546875,74.98066711425781 241.77740287780762,234.7143783569336 158.03302764892578,19.486831665039062 251.0056881904602,230.8918972015381 255.99999044070864,0 260.99431228637695,230.8918972015381 353.9669494628906,19.486831665039062 270.2225980758667,234.7143783569336 437.0193328857422,74.98065185546875 277.2856216430664,241.77740287780762 492.51316833496094,158.03302764892578 281.1081027984619,251.0056881904602 512,255.99999044070864 281.1081027984619,260.99431228637695 492.51316833496094,353.9669494628906 277.2856216430664,270.2225980758667 437.01934814453125,437.0193328857422 270.2225971221924,277.2856216430664 353.9669723510742,492.51316833496094 260.9943118095398,281.1081027984619 "/>
</g>
</svg>