<?xml version="1.0" encoding="UTF-8" standalone="no"?>
<!-- Generator: Adobe Illustrator 16.0.0, SVG Export Plug-In . SVG Version: 6.00 Build 0)  -->

<svg
   xmlns:dc="http://purl.org/dc/elements/1.1/"
   xmlns:cc="http://creativecommons.org/ns#"
   xmlns:rdf="http://www.w3.org/1999/02/22-rdf-syntax-ns#"
   xmlns:svg="http://www.w3.org/2000/svg"
   xmlns="http://www.w3.org/2000/svg"
   xmlns:sodipodi="http://sodipodi.sourceforge.net/DTD/sodipodi-0.dtd"
   xmlns:inkscape="http://www.inkscape.org/namespaces/inkscape"
   version="1.1"
   id="Capa_1"
   x="0px"
   y="0px"
   width="464.1px"
   height="464.099px"
   viewBox="0 0 464.1 464.099"
   style="enable-background:new 0 0 464.1 464.099;"
   xml:space="preserve"
   sodipodi:docname="stroke.svg"
   inkscape:version="0.92.1 r15371"><metadata
     id="metadata42"><rdf:RDF><cc:Work
         rdf:about=""><dc:format>image/svg+xml</dc:format><dc:type
           rdf:resource="http://purl.org/dc/dcmitype/StillImage" /></cc:Work></rdf:RDF></metadata><defs
     id="defs40" /><sodipodi:namedview
     pagecolor="#ffffff"
     bordercolor="#666666"
     borderopacity="1"
     objecttolerance="10"
     gridtolerance="10"
     guidetolerance="10"
     inkscape:pageopacity="0"
     inkscape:pageshadow="2"
     inkscape:window-width="1600"
     inkscape:window-height="837"
     id="namedview38"
     showgrid="false"
     inkscape:zoom="0.50851219"
     inkscape:cx="232.05"
     inkscape:cy="232.0495"
     inkscape:window-x="-8"
     inkscape:window-y="-8"
     inkscape:window-maximized="1"
     inkscape:current-layer="Capa_1" /><g
     id="g7" /><g
     id="g9" /><g
     id="g11" /><g
     id="g13" /><g
     id="g15" /><g
     id="g17" /><g
     id="g19" /><g
     id="g21" /><g
     id="g23" /><g
     id="g25" /><g
     id="g27" /><g
     id="g29" /><g
     id="g31" /><g
     id="g33" /><g
     id="g35" /><path
     style="fill:#000000;stroke-width:0.87294203"
     d="m 117.60014,463.42523 c -0.7995,-0.8682 -9.15493,-10.98493 -18.567652,-22.48165 L 81.918474,420.04048 66.106263,384.45512 C 51.858058,352.38954 48.920289,345.02293 36.405125,309.97795 l -13.888929,-38.89178 -5.090599,-46.70433 -5.090584,-46.7043 7.530363,-16.93389 c 4.141697,-9.31361 14.011752,-31.46937 21.933443,-49.235 L 56.201899,79.207497 76.569677,66.298828 C 87.771946,59.199068 106.87302,47.090823 119.01648,39.391629 L 141.09554,25.39309 186.68728,15.158601 c 25.07545,-5.62896 47.38372,-10.3984326 49.5739,-10.5988117 3.19927,-0.2927154 12.24279,2.4643537 45.99877,14.0234837 34.32505,11.754009 48.51501,17.181338 77.51558,29.647959 l 35.49897,15.260121 30.62257,19.695317 c 16.84243,10.832397 30.57631,20.0194 30.51972,20.41559 -0.099,0.69325 -69.71798,109.35181 -71.95971,112.31193 -0.96293,1.27152 -4.32638,-0.61663 -27.29315,-15.32157 -26.18374,-16.7647 -26.20628,-16.77672 -53.17369,-28.37682 -14.83835,-6.38276 -37.36323,-15.16043 -50.05532,-19.50593 l -23.0765,-7.90092 -18.09144,3.85083 -18.09145,3.85079 -15.43628,9.58428 -15.43629,9.58428 -6.10866,13.79269 -6.10866,13.79269 2.2918,21.00374 2.29178,21.00374 10.49956,29.29432 c 7.63762,21.30932 13.44497,35.90609 21.30527,53.55071 l 10.80568,24.25638 12.4597,15.26377 c 6.85284,8.39507 12.27315,15.57483 12.04512,15.95502 -0.22803,0.3802 -22.87759,18.96155 -50.33239,41.29195 -27.4548,22.33037 -50.81344,41.39243 -51.90808,42.36014 -1.82739,1.61546 -2.10926,1.63026 -3.44394,0.18097 z"
     id="path55"
     inkscape:connector-curvature="0" /></svg>