<?xml version="1.0" ?>
<svg width="512" height="512" xmlns="http://www.w3.org/2000/svg" xmlns:svg="http://www.w3.org/2000/svg">
<g>
    <path d="M256,512 216.04550170898438,456.8648223876953 158.03304290771484,492.5131530761719 142.2192153930664,426.28497314453125 74.98066711425781,437.0193328857422 85.71502685546875,369.78077697753906 19.486846923828125,353.96695709228516 55.13517761230469,295.95449447631836 0,256.00000130129433 55.13517761230469,216.04550170898438 19.486831665039062,158.03304290771484 85.71502685546875,142.2192153930664 74.98065185546875,74.98066711425781 142.21922302246094,85.71502685546875 158.03302764892578,19.486831665039062 216.04550552368164,55.13517761230469 255.99999044070864,0 295.9544982910156,55.13517761230469 353.9669494628906,19.486831665039062 369.7807846069336,85.71502685546875 437.0193328857422,74.98065185546875 426.28497314453125,142.21922302246094 492.51316833496094,158.03302764892578 456.8648223876953,216.04550552368164 512,255.99999044070864 456.8648223876953,295.9544982910156 492.51316833496094,353.9669494628906 426.28497314453125,369.7807846069336 437.01934814453125,437.0193328857422 369.78077697753906,426.28497314453125 353.9669723510742,492.51316833496094 295.95449447631836,456.8648223876953 "/>
</g>
</svg>